<?xml version="1.0" encoding="UTF-8" standalone="no"?>
<svg
   xmlns:dc="http://purl.org/dc/elements/1.1/"
   xmlns:cc="http://creativecommons.org/ns#"
   xmlns:rdf="http://www.w3.org/1999/02/22-rdf-syntax-ns#"
   xmlns:svg="http://www.w3.org/2000/svg"
   xmlns="http://www.w3.org/2000/svg"
   viewBox="0 0 277.37314 291.60049"
   height="291.60049"
   width="277.37314"
   xml:space="preserve"
   version="1.1"
   id="svg5694"><metadata
     id="metadata5700"><rdf:RDF><cc:Work
         rdf:about=""><dc:format>image/svg+xml</dc:format><dc:type
           rdf:resource="http://purl.org/dc/dcmitype/StillImage" /><dc:title></dc:title></cc:Work></rdf:RDF></metadata><defs
     id="defs5698"><clipPath
       id="clipPath5710"
       clipPathUnits="userSpaceOnUse"><path
         id="path5712"
         d="M 0,576 1368,576 1368,0 0,0 0,576 Z" /></clipPath><clipPath
       id="clipPath5784"
       clipPathUnits="userSpaceOnUse"><path
         id="path5786"
         d="m 0,0 1368,0 0,576 L 0,576 0,0 Z" /></clipPath><clipPath
       id="clipPath5900"
       clipPathUnits="userSpaceOnUse"><path
         id="path5902"
         d="m 0,0 1368,0 0,576 L 0,576 0,0 Z" /></clipPath><clipPath
       id="clipPath5920"
       clipPathUnits="userSpaceOnUse"><path
         id="path5922"
         d="m 0,0 1368,0 0,576 L 0,576 0,0 Z" /></clipPath><clipPath
       id="clipPath5952"
       clipPathUnits="userSpaceOnUse"><path
         id="path5954"
         d="m 0,0 1368,0 0,576 L 0,576 0,0 Z" /></clipPath><clipPath
       id="clipPath5980"
       clipPathUnits="userSpaceOnUse"><path
         id="path5982"
         d="m 0,0 1368,0 0,576 L 0,576 0,0 Z" /></clipPath><clipPath
       id="clipPath6012"
       clipPathUnits="userSpaceOnUse"><path
         id="path6014"
         d="m 0,0 1368,0 0,576 L 0,576 0,0 Z" /></clipPath><clipPath
       id="clipPath6152"
       clipPathUnits="userSpaceOnUse"><path
         id="path6154"
         d="m 0,0 1368,0 0,576 L 0,576 0,0 Z" /></clipPath><clipPath
       id="clipPath6184"
       clipPathUnits="userSpaceOnUse"><path
         id="path6186"
         d="m 0,0 1368,0 0,576 L 0,576 0,0 Z" /></clipPath><clipPath
       id="clipPath6212"
       clipPathUnits="userSpaceOnUse"><path
         id="path6214"
         d="m 0,0 1368,0 0,576 L 0,576 0,0 Z" /></clipPath><clipPath
       id="clipPath6244"
       clipPathUnits="userSpaceOnUse"><path
         id="path6246"
         d="m 0,0 1368,0 0,576 L 0,576 0,0 Z" /></clipPath><clipPath
       id="clipPath6284"
       clipPathUnits="userSpaceOnUse"><path
         id="path6286"
         d="m 0,0 1368,0 0,576 L 0,576 0,0 Z" /></clipPath><clipPath
       id="clipPath6308"
       clipPathUnits="userSpaceOnUse"><path
         id="path6310"
         d="m 0,0 1368,0 0,576 L 0,576 0,0 Z" /></clipPath><clipPath
       id="clipPath6328"
       clipPathUnits="userSpaceOnUse"><path
         id="path6330"
         d="m 0,0 1368,0 0,576 L 0,576 0,0 Z" /></clipPath><clipPath
       id="clipPath6352"
       clipPathUnits="userSpaceOnUse"><path
         id="path6354"
         d="m 0,0 1368,0 0,576 L 0,576 0,0 Z" /></clipPath></defs><g
     transform="matrix(1.25,0,0,-1.25,-39.59975,498.8255)"
     id="g5702"><g
       id="g5896"><g
         clip-path="url(#clipPath5900)"
         id="g5898"><g
           transform="translate(205.9907,308.4839)"
           id="g5904"><path
             id="path5906"
             style="fill:#bf0c26;fill-opacity:1;fill-rule:nonzero;stroke:none"
             d="m 0,0 c 0.697,0.408 1.217,1.001 1.538,1.674 l -3.34,5.639 C -2.555,7.353 -3.325,7.185 -4.021,6.768 -5.888,5.663 -6.505,3.244 -5.399,1.37 -4.286,-0.496 -1.866,-1.113 0,0" /></g></g></g><g
       transform="translate(69.8541,367.3892)"
       id="g5908"><path
         id="path5910"
         style="fill:#bf0c26;fill-opacity:1;fill-rule:nonzero;stroke:none"
         d="M 0,0 8.595,-1.914 8.499,1.73 0.097,3.596 0,0 Z" /></g><g
       transform="translate(70.0554,374.5815)"
       id="g5912"><path
         id="path5914"
         style="fill:#bf0c26;fill-opacity:1;fill-rule:nonzero;stroke:none"
         d="M 0,0 8.194,-1.826 8.098,1.81 0.096,3.597 0,0 Z" /></g><g
       id="g5916"><g
         clip-path="url(#clipPath5920)"
         id="g5918"><g
           transform="translate(70.4473,389.0797)"
           id="g5924"><path
             id="path5926"
             style="fill:#bf0c26;fill-opacity:1;fill-rule:nonzero;stroke:none"
             d="M 0,0 7.402,-1.65 7.353,0 c 1.178,1.025 1.938,2.523 1.938,4.213 0,3.1 -2.515,5.615 -5.614,5.615 -3.1,0 -5.615,-2.515 -5.615,-5.615 C -1.938,2.523 -1.177,1.025 0,0" /></g><g
           transform="translate(78.9219,350.8643)"
           id="g5928"><path
             id="path5930"
             style="fill:#bf0c26;fill-opacity:1;fill-rule:nonzero;stroke:none"
             d="m 0,0 11.101,0.633 c 1.434,0.048 2.588,1.218 2.62,2.659 l 0,0.12 C 13.689,4.878 12.487,6.064 11.014,6.064 9.508,6.064 8.298,4.854 8.298,3.348 8.298,2.699 8.554,2.123 8.939,1.65 L 0.433,3.58 -0.168,3.693 -9.364,5.735 -9.42,3.725 -19.768,2.996 -20.137,2.972 c -0.144,-0.016 -0.273,-0.048 -0.4,-0.08 -1.177,-0.297 -2.066,-1.314 -2.066,-2.588 0,-1.497 1.209,-2.714 2.714,-2.714 1.498,0 2.716,1.217 2.716,2.714 0,0.561 -0.217,1.058 -0.505,1.491 l 8.154,-1.787 c 0,0 0.496,-75.285 2.483,-136.632 1.346,-2.852 2.78,-5.503 4.294,-7.938 C -0.537,-81.981 0,0 0,0" /></g></g></g><g
       transform="translate(69.751,363.7924)"
       id="g5932"><path
         id="path5934"
         style="fill:#bf0c26;fill-opacity:1;fill-rule:nonzero;stroke:none"
         d="M 0,0 -0.097,-3.597 8.899,-5.607 8.802,-1.955 0,0 Z" /></g><g
       transform="translate(70.3513,385.3713)"
       id="g5936"><path
         id="path5938"
         style="fill:#bf0c26;fill-opacity:1;fill-rule:nonzero;stroke:none"
         d="M 0,0 -0.104,-3.596 7.697,-5.335 7.602,-1.699 0,0 Z" /></g><g
       transform="translate(119.6921,367.3892)"
       id="g5940"><path
         id="path5942"
         style="fill:#bf0c26;fill-opacity:1;fill-rule:nonzero;stroke:none"
         d="M 0,0 8.595,-1.914 8.499,1.73 0.096,3.596 0,0 Z" /></g><g
       transform="translate(119.8849,374.5815)"
       id="g5944"><path
         id="path5946"
         style="fill:#bf0c26;fill-opacity:1;fill-rule:nonzero;stroke:none"
         d="M 0,0 8.202,-1.826 8.105,1.81 0.104,3.597 0,0 Z" /></g><g
       id="g5948"><g
         clip-path="url(#clipPath5952)"
         id="g5950"><g
           transform="translate(120.2849,389.0797)"
           id="g5956"><path
             id="path5958"
             style="fill:#bf0c26;fill-opacity:1;fill-rule:nonzero;stroke:none"
             d="M 0,0 7.401,-1.65 7.353,0 c 1.178,1.025 1.938,2.523 1.938,4.213 0,3.1 -2.514,5.615 -5.614,5.615 -3.1,0 -5.615,-2.515 -5.615,-5.615 C -1.938,2.523 -1.178,1.025 0,0" /></g><g
           transform="translate(108.8628,348.4538)"
           id="g5960"><path
             id="path5962"
             style="fill:#bf0c26;fill-opacity:1;fill-rule:nonzero;stroke:none"
             d="m 0,0 c 1.506,0 2.716,1.217 2.716,2.715 0,0.561 -0.209,1.057 -0.506,1.49 l 8.163,-1.786 c 0,0 0.72,-109.015 3.885,-171.588 0.576,-0.072 1.161,-0.12 1.746,-0.184 3.18,62.541 3.893,171.763 3.893,171.763 L 30.99,3.044 c 1.458,0.056 2.627,1.249 2.627,2.706 l 0,0.017 c 0,1.497 -1.217,2.707 -2.715,2.707 -1.497,0 -2.716,-1.21 -2.716,-2.715 0,-0.649 0.266,-1.226 0.649,-1.698 L 20.321,5.991 19.728,6.103 10.525,8.146 10.477,6.135 0.128,5.407 -0.24,5.382 C -0.385,5.367 -0.513,5.335 -0.649,5.303 -1.69,5.038 -2.499,4.212 -2.676,3.148 l 0,-0.81 C -2.491,1.017 -1.37,0 0,0" /></g></g></g><g
       transform="translate(142.4799,354.204)"
       id="g5964"><path
         id="path5966"
         style="fill:#bf0c26;fill-opacity:1;fill-rule:nonzero;stroke:none"
         d="M 0,0 0,0.008 0,0.016 0,0 Z" /></g><g
       transform="translate(119.588,363.7924)"
       id="g5968"><path
         id="path5970"
         style="fill:#bf0c26;fill-opacity:1;fill-rule:nonzero;stroke:none"
         d="M 0,0 -0.096,-3.597 8.899,-5.607 8.803,-1.955 0,0 Z" /></g><g
       transform="translate(120.1808,385.3713)"
       id="g5972"><path
         id="path5974"
         style="fill:#bf0c26;fill-opacity:1;fill-rule:nonzero;stroke:none"
         d="M 0,0 -0.096,-3.596 7.705,-5.335 7.601,-1.699 0,0 Z" /></g><g
       id="g5976"><g
         clip-path="url(#clipPath5980)"
         id="g5978"><g
           transform="translate(92.6503,354.2124)"
           id="g5984"><path
             id="path5986"
             style="fill:#bf0c26;fill-opacity:1;fill-rule:nonzero;stroke:none"
             d="m 0,0 c 0,-0.016 -0.007,-0.032 -0.007,-0.056 l 0,-164.042 c 4.413,-2.708 8.947,-4.926 13.544,-6.649 l 0,167.327 c -0.016,0.128 -0.039,0.248 -0.039,0.376 0,0.153 0.015,0.289 0.039,0.433 l 0,47.459 -13.544,0 0,-44.784 C -0.007,0.04 0,0.025 0,0" /></g><g
           transform="translate(92.6503,354.2124)"
           id="g5988"><path
             id="path5990"
             style="fill:#bf0c26;fill-opacity:1;fill-rule:nonzero;stroke:none"
             d="m 0,0 c 0,0.025 -0.007,0.04 -0.007,0.064 l 0,-0.12 C -0.007,-0.032 0,-0.016 0,0" /></g><g
           transform="translate(92.6503,354.2124)"
           id="g5992"><path
             id="path5994"
             style="fill:#bf0c26;fill-opacity:1;fill-rule:nonzero;stroke:none"
             d="m 0,0 c 0,0.025 -0.007,0.04 -0.007,0.064 l 0,-0.12 C -0.007,-0.032 0,-0.016 0,0" /></g><g
           transform="translate(106.1479,351.1686)"
           id="g5996"><path
             id="path5998"
             style="fill:#bf0c26;fill-opacity:1;fill-rule:nonzero;stroke:none"
             d="m 0,0 c 0,-0.128 0.024,-0.248 0.039,-0.376 l 0,0.809 C 0.016,0.289 0,0.152 0,0" /></g><g
           transform="translate(106.1479,351.1686)"
           id="g6000"><path
             id="path6002"
             style="fill:#bf0c26;fill-opacity:1;fill-rule:nonzero;stroke:none"
             d="m 0,0 c 0,-0.128 0.024,-0.248 0.039,-0.376 l 0,0.809 C 0.016,0.289 0,0.152 0,0" /></g></g></g><g
       transform="translate(56.2298,399.06)"
       id="g6004"><path
         id="path6006"
         style="fill:#bf0c26;fill-opacity:1;fill-rule:nonzero;stroke:none"
         d="M 0,0 -24.55,0 -0.048,-17.366" /></g><g
       transform="translate(204.8613,399.06)"
       id="g6016"><path
         id="path6018"
         style="fill:#b28c50;fill-opacity:1;fill-rule:nonzero;stroke:none"
         d="m 0,0 c -25.736,-2.94 -35.644,-19.953 -35.861,-35.244 -0.16,-11.029 3.686,-24.438 20.065,-29.932 8.483,-0.745 14.018,-6.401 17.67,-13.834 1.386,-2.819 3.332,-1.85 4.454,-8.274 0.673,-3.861 5.406,-10.38 5.631,-14.321 0.04,-0.777 -5.984,-2.708 -6.952,-2.619 -4.918,0.448 -9.693,2.619 -13.433,5.79 -0.665,0.561 -1.706,0.938 -2.636,1.21 -11.702,3.476 -14.706,7.249 -16.308,19.921 -0.032,0.264 -0.192,1.121 -0.617,2.354 -8.242,4.31 -22.964,15.363 -23.965,39.722 -0.56,13.641 3.885,24.846 12.071,35.227 l -22.501,0 0,-44.839 0,-0.009 0,-0.008 0,-174.567 c 11.031,1.794 21.363,6.312 30.006,13.345 14.754,12.007 20.985,28.154 19.056,49.436 -0.073,0.753 0.632,0.889 0.632,0.889 l 7.81,1.41 c 0,0 0.857,0.168 1.066,-0.753 6.199,-26.192 -2.988,-44.35 -13.465,-58.423 -5.479,-7.362 -13.457,-14.162 -22.476,-19.761 l 63.967,28.555 0,187.359 L 48.717,0 0,0 Z m -33.953,-120.485 -0.706,0.649 c -1.009,0.921 -1.081,2.515 -0.152,3.524 l 1.874,2.051 c 0.93,1.009 2.523,1.082 3.532,0.152 l 0.706,-0.64 c 1.008,-0.93 1.081,-2.516 0.151,-3.533 l -1.882,-2.051 c -0.921,-1.009 -2.515,-1.081 -3.523,-0.152 m 4.525,-5.703 -0.609,0.737 c -0.873,1.057 -0.729,2.636 0.328,3.516 l 3.292,2.724 c 1.058,0.873 2.636,0.729 3.517,-0.328 l 0.608,-0.738 c 0.874,-1.057 0.729,-2.642 -0.336,-3.516 l -3.284,-2.723 c -1.057,-0.881 -2.636,-0.729 -3.516,0.328 m 4.173,-6.207 -0.537,0.785 c -0.776,1.129 -0.489,2.691 0.641,3.476 l 4.485,3.075 c 1.13,0.778 2.7,0.489 3.477,-0.64 l 0.536,-0.785 c 0.778,-1.138 0.489,-2.699 -0.64,-3.476 l -4.486,-3.076 c -1.137,-0.785 -2.7,-0.489 -3.476,0.641 m 3.316,-6.529 -0.441,0.841 c -0.633,1.226 -0.152,2.74 1.066,3.373 l 6.127,3.18 c 1.218,0.632 2.732,0.152 3.364,-1.066 l 0.441,-0.848 c 0.633,-1.219 0.153,-2.732 -1.066,-3.365 l -6.126,-3.18 c -1.218,-0.632 -2.732,-0.152 -3.365,1.065 m 3.42,-6.64 -0.344,0.889 c -0.505,1.274 0.128,2.732 1.401,3.237 l 6.424,2.53 c 1.274,0.505 2.732,-0.128 3.236,-1.409 l 0.353,-0.881 c 0.504,-1.282 -0.128,-2.739 -1.41,-3.245 l -6.416,-2.53 c -1.281,-0.505 -2.739,0.128 -3.244,1.409 m 12.488,-6.744 -6.649,-1.85 c -1.321,-0.369 -2.708,0.416 -3.075,1.738 l -0.256,0.913 c -0.37,1.329 0.415,2.707 1.737,3.076 l 6.649,1.85 c 1.322,0.368 2.707,-0.408 3.075,-1.738 l 0.257,-0.913 c 0.368,-1.322 -0.417,-2.708 -1.738,-3.076" /><path
         d="m 0,0 c -25.736,-2.94 -35.644,-19.953 -35.861,-35.244 -0.16,-11.029 3.686,-24.438 20.065,-29.932 8.483,-0.745 14.018,-6.401 17.67,-13.834 1.386,-2.819 3.332,-1.85 4.454,-8.274 0.673,-3.861 5.406,-10.38 5.631,-14.321 0.04,-0.777 -5.984,-2.708 -6.952,-2.619 -4.918,0.448 -9.693,2.619 -13.433,5.79 -0.665,0.561 -1.706,0.938 -2.636,1.21 -11.702,3.476 -14.706,7.249 -16.308,19.921 -0.032,0.264 -0.192,1.121 -0.617,2.354 -8.242,4.31 -22.964,15.363 -23.965,39.722 -0.56,13.641 3.885,24.846 12.071,35.227 l -22.501,0 0,-44.839 0,-0.009 0,-0.008 0,-174.567 c 11.031,1.794 21.363,6.312 30.006,13.345 14.754,12.007 20.985,28.154 19.056,49.436 -0.073,0.753 0.632,0.889 0.632,0.889 l 7.81,1.41 c 0,0 0.857,0.168 1.066,-0.753 6.199,-26.192 -2.988,-44.35 -13.465,-58.423 -5.479,-7.362 -13.457,-14.162 -22.476,-19.761 l 63.967,28.555 0,187.359 L 48.717,0 0,0 Z m -33.953,-120.485 -0.706,0.649 c -1.009,0.921 -1.081,2.515 -0.152,3.524 l 1.874,2.051 c 0.93,1.009 2.523,1.082 3.532,0.152 l 0.706,-0.64 c 1.008,-0.93 1.081,-2.516 0.151,-3.533 l -1.882,-2.051 c -0.921,-1.009 -2.515,-1.081 -3.523,-0.152 m 4.525,-5.703 -0.609,0.737 c -0.873,1.057 -0.729,2.636 0.328,3.516 l 3.292,2.724 c 1.058,0.873 2.636,0.729 3.517,-0.328 l 0.608,-0.738 c 0.874,-1.057 0.729,-2.642 -0.336,-3.516 l -3.284,-2.723 c -1.057,-0.881 -2.636,-0.729 -3.516,0.328 m 4.173,-6.207 -0.537,0.785 c -0.776,1.129 -0.489,2.691 0.641,3.476 l 4.485,3.075 c 1.13,0.778 2.7,0.489 3.477,-0.64 l 0.536,-0.785 c 0.778,-1.138 0.489,-2.699 -0.64,-3.476 l -4.486,-3.076 c -1.137,-0.785 -2.7,-0.489 -3.476,0.641 m 3.316,-6.529 -0.441,0.841 c -0.633,1.226 -0.152,2.74 1.066,3.373 l 6.127,3.18 c 1.218,0.632 2.732,0.152 3.364,-1.066 l 0.441,-0.848 c 0.633,-1.219 0.153,-2.732 -1.066,-3.365 l -6.126,-3.18 c -1.218,-0.632 -2.732,-0.152 -3.365,1.065 m 3.42,-6.64 -0.344,0.889 c -0.505,1.274 0.128,2.732 1.401,3.237 l 6.424,2.53 c 1.274,0.505 2.732,-0.128 3.236,-1.409 l 0.353,-0.881 c 0.504,-1.282 -0.128,-2.739 -1.41,-3.245 l -6.416,-2.53 c -1.281,-0.505 -2.739,0.128 -3.244,1.409 m 12.488,-6.744 -6.649,-1.85 c -1.321,-0.369 -2.708,0.416 -3.075,1.738 l -0.256,0.913 c -0.37,1.329 0.415,2.707 1.737,3.076 l 6.649,1.85 c 1.322,0.368 2.707,-0.408 3.075,-1.738 l 0.257,-0.913 c 0.368,-1.322 -0.417,-2.708 -1.738,-3.076"
         style="fill:#b28c50;fill-opacity:1;fill-rule:nonzero;stroke:none"
         id="path6968" /></g></g></svg>